<mxfile host="65bd71144e">
    <diagram id="VKhgRJJHrhwZms7KopTc" name="第 1 页">
        <mxGraphModel dx="438" dy="220" grid="1" gridSize="10" guides="1" tooltips="1" connect="1" arrows="1" fold="1" page="1" pageScale="1" pageWidth="827" pageHeight="1169" math="0" shadow="0">
            <root>
                <mxCell id="0"/>
                <mxCell id="1" parent="0"/>
                <mxCell id="2" value="" style="whiteSpace=wrap;html=1;aspect=fixed;fontColor=#ffffff;strokeColor=#28122124;fillColor=#197D7D;" parent="1" vertex="1">
                    <mxGeometry x="170" y="180" width="80" height="80" as="geometry"/>
                </mxCell>
                <mxCell id="3" value="IPFS" style="text;html=1;fontSize=24;fontStyle=1;verticalAlign=middle;align=center;fontColor=#FFFFFF;" parent="1" vertex="1">
                    <mxGeometry x="170" y="192" width="80" height="30" as="geometry"/>
                </mxCell>
                <UserObject label="&lt;font style=&quot;font-size: 20px;&quot;&gt;client&lt;/font&gt;" placeholders="1" name="Variable" id="5">
                    <mxCell style="text;html=1;strokeColor=none;fillColor=none;align=center;verticalAlign=middle;whiteSpace=wrap;overflow=hidden;fontColor=#FFFFFF;fontSize=20;" parent="1" vertex="1">
                        <mxGeometry x="170" y="223" width="80" height="27" as="geometry"/>
                    </mxCell>
                </UserObject>
                <mxCell id="6" value="" style="whiteSpace=wrap;html=1;aspect=fixed;fontColor=#ffffff;strokeColor=#28122124;fillColor=#197D7D;" vertex="1" parent="1">
                    <mxGeometry x="280" y="112" width="118" height="118" as="geometry"/>
                </mxCell>
                <mxCell id="7" value="IPFS" style="text;html=1;fontSize=32;fontStyle=1;verticalAlign=middle;align=center;fontColor=#FFFFFF;" vertex="1" parent="1">
                    <mxGeometry x="289" y="139" width="100" height="33" as="geometry"/>
                </mxCell>
                <UserObject label="&lt;font style=&quot;font-size: 28px;&quot;&gt;client&lt;/font&gt;" placeholders="1" name="Variable" id="8">
                    <mxCell style="text;html=1;strokeColor=none;fillColor=none;align=center;verticalAlign=middle;whiteSpace=wrap;overflow=hidden;fontColor=#FFFFFF;fontSize=28;" vertex="1" parent="1">
                        <mxGeometry x="284" y="174" width="110" height="32.5" as="geometry"/>
                    </mxCell>
                </UserObject>
            </root>
        </mxGraphModel>
    </diagram>
</mxfile>